<?xml version="1.0" encoding="utf-8"?>
<svg xmlns="http://www.w3.org/2000/svg" xmlns:xlink="http://www.w3.org/1999/xlink" style="margin: auto; background: none; display: block; shape-rendering: auto;" width="200px" height="200px" viewBox="0 0 100 100" preserveAspectRatio="xMidYMid">
<g transform="rotate(0 50 50)">
  <rect x="42" y="9.5" rx="8" ry="12.5" width="16" height="25" fill="#93dbe9">
    <animate attributeName="opacity" values="1;0" keyTimes="0;1" dur="3.0303030303030303s" begin="-2.5974025974025974s" repeatCount="indefinite"></animate>
  </rect>
</g><g transform="rotate(51.42857142857143 50 50)">
  <rect x="42" y="9.5" rx="8" ry="12.5" width="16" height="25" fill="#93dbe9">
    <animate attributeName="opacity" values="1;0" keyTimes="0;1" dur="3.0303030303030303s" begin="-2.1645021645021645s" repeatCount="indefinite"></animate>
  </rect>
</g><g transform="rotate(102.85714285714286 50 50)">
  <rect x="42" y="9.5" rx="8" ry="12.5" width="16" height="25" fill="#93dbe9">
    <animate attributeName="opacity" values="1;0" keyTimes="0;1" dur="3.0303030303030303s" begin="-1.7316017316017316s" repeatCount="indefinite"></animate>
  </rect>
</g><g transform="rotate(154.28571428571428 50 50)">
  <rect x="42" y="9.5" rx="8" ry="12.5" width="16" height="25" fill="#93dbe9">
    <animate attributeName="opacity" values="1;0" keyTimes="0;1" dur="3.0303030303030303s" begin="-1.2987012987012987s" repeatCount="indefinite"></animate>
  </rect>
</g><g transform="rotate(205.71428571428572 50 50)">
  <rect x="42" y="9.5" rx="8" ry="12.5" width="16" height="25" fill="#93dbe9">
    <animate attributeName="opacity" values="1;0" keyTimes="0;1" dur="3.0303030303030303s" begin="-0.8658008658008658s" repeatCount="indefinite"></animate>
  </rect>
</g><g transform="rotate(257.14285714285717 50 50)">
  <rect x="42" y="9.5" rx="8" ry="12.5" width="16" height="25" fill="#93dbe9">
    <animate attributeName="opacity" values="1;0" keyTimes="0;1" dur="3.0303030303030303s" begin="-0.4329004329004329s" repeatCount="indefinite"></animate>
  </rect>
</g><g transform="rotate(308.57142857142856 50 50)">
  <rect x="42" y="9.5" rx="8" ry="12.5" width="16" height="25" fill="#93dbe9">
    <animate attributeName="opacity" values="1;0" keyTimes="0;1" dur="3.0303030303030303s" begin="0s" repeatCount="indefinite"></animate>
  </rect>
</g>
<!-- [ldio] generated by https://loading.io/ --></svg>